<?xml version="1.0" encoding="utf-8"?><svg xmlns="http://www.w3.org/2000/svg" width="35" height="35" viewBox="0 0 52.088 52.111">
  <g id="picto_credit_impot" transform="translate(-587.499 -536.474)">
    <g id="Group_56" data-name="Group 56" transform="translate(588.75 537.752)">
      <g id="saving-piggy-coins">
        <path id="Shape_385" data-name="Shape 385" d="M589.942,559c1.572-10.887,12.977-16.633,20.9-16.474a21.272,21.272,0,0,1,4.877.621l4.37-5.011a1.652,1.652,0,0,1,2.7,1.069l.785,7.65a18.218,18.218,0,0,1,6.334,8.954h4.077v13.285H628.5a18.535,18.535,0,0,1-4.43,5.289c-1.906,1.58-6.829,4.475-9.913,5" transform="translate(-584.401 -537.752)" fill="#fff" stroke="#b70e0c" stroke-linecap="round" stroke-linejoin="round" stroke-width="2.5"/>
        <g id="Groupe_2532" data-name="Groupe 2532">
          <path id="Shape_386" data-name="Shape 386" d="M615.2,551.25v13.223c0,3.652-5.92,6.612-13.223,6.612s-13.223-2.96-13.223-6.612V551.25" transform="translate(-588.75 -521.502)" fill="#dce2ec" stroke="#1a4184" stroke-linecap="round" stroke-linejoin="round" stroke-width="2.5"/>
          <path id="Shape_387" data-name="Shape 387" d="M588.75,554.25c0,3.652,5.92,6.612,13.223,6.612S615.2,557.9,615.2,554.25" transform="translate(-588.75 -517.891)" fill="#dce2ec" stroke="#1a4184" stroke-linecap="round" stroke-linejoin="round" stroke-width="2.5"/>
          <path id="Oval_16" data-name="Oval 16" d="M601.973,561.473c7.3,0,13.223-2.96,13.223-6.612s-5.92-6.612-13.223-6.612-13.223,2.96-13.223,6.612S594.67,561.473,601.973,561.473Z" transform="translate(-588.751 -525.113)" fill="#dce2ec" stroke="#1a4184" stroke-linecap="round" stroke-linejoin="round" stroke-width="2.5"/>
        </g>
        <path id="Shape_388" data-name="Shape 388" d="M605.938,544.5a1.438,1.438,0,1,0,1.438,1.438,1.438,1.438,0,0,0-1.438-1.438" transform="translate(-571.012 -529.628)" fill="none" stroke="#1a4184" stroke-linecap="round" stroke-linejoin="round" stroke-width="2.5"/>
        <path id="Shape_389" data-name="Shape 389" d="M605.957,554.956l1.748,6.709" transform="translate(-568.035 -517.041)" fill="none" stroke="#b70e0c" stroke-linecap="round" stroke-linejoin="round" stroke-width="2.5"/>
      </g>
    </g>
  </g>
</svg>
