<?xml version="1.0" encoding="utf-8"?><svg xmlns="http://www.w3.org/2000/svg" width="90" height="90" viewBox="0 0 90 90">
  <g id="silmplicite" transform="translate(-978 -1014)">
    <rect id="Rectangle_1633" data-name="Rectangle 1633" width="90" height="90" rx="10" transform="translate(978 1014)" fill="transparent"/>
    <g id="Social-Medias-Rewards-Rating_Likes_like-shine" data-name="Social-Medias-Rewards-Rating / Likes/ like-shine" transform="translate(571.248 566.25)">
      <g id="Group_37" data-name="Group 37" transform="translate(427.75 468.75)">
        <g id="like-shine">
          <path id="Shape_151" data-name="Shape 151" d="M427.75,490.2h4.572a17.12,17.12,0,0,0,17.141-16.774c0-3.394,6.859-3.823,6.859,2.615a64.191,64.191,0,0,1-2.285,12.407l-.045.151h18.56a3.2,3.2,0,1,1,0,6.4h-3.2a3.2,3.2,0,0,1,0,6.4h-1.6a3.2,3.2,0,1,1,0,6.4h-1.6a3.2,3.2,0,0,1,0,6.4H450.607c-9.141,0-4.572-4.8-22.857-4.8" transform="translate(-427.75 -466.2)" fill="#fff" stroke="#b70e0c" stroke-linecap="round" stroke-linejoin="round" stroke-width="2.2"/>
          <path id="Tracé_1540" data-name="Tracé 1540" d="M3.956,3.608a1.283,1.283,0,0,0,.16-.712A10.617,10.617,0,0,1,4.26,1.661,2.981,2.981,0,0,1,4.708.507,1.228,1.228,0,0,1,5.813,0a1.252,1.252,0,0,1,.928.443q-.032.759-.063,1.5t-.063,1.5a6.287,6.287,0,0,0,.956.063,3.83,3.83,0,0,1,1.049.142,1.859,1.859,0,0,1,.83.475,1.361,1.361,0,0,1,.329,1q0,.38-.538.443A7.147,7.147,0,0,1,8.055,5.6a9.036,9.036,0,0,0-1.2.016q-.555.048-.617.427-.064.444-.143,1.013a5.752,5.752,0,0,1-.253,1.076A2.606,2.606,0,0,1,5.349,9a1.111,1.111,0,0,1-.886.364,1.5,1.5,0,0,1-.728-.19.663.663,0,0,1-.348-.633A6.343,6.343,0,0,1,3.5,7.358,6.23,6.23,0,0,0,3.608,6.2V5.887A7.559,7.559,0,0,1,2.5,6.06,3.474,3.474,0,0,1,1.44,6a2.264,2.264,0,0,1-.886-.412A1.61,1.61,0,0,1,0,4.652q.1-.221.617-.4a9.55,9.55,0,0,1,1.171-.3q.648-.126,1.266-.206t.9-.142" transform="translate(8.89 -2.485)" fill="#1a4184"/>
          <path id="Tracé_1542" data-name="Tracé 1542" d="M3.956,3.608a1.283,1.283,0,0,0,.16-.712A10.617,10.617,0,0,1,4.26,1.661,2.981,2.981,0,0,1,4.708.507,1.228,1.228,0,0,1,5.813,0a1.252,1.252,0,0,1,.928.443q-.032.759-.063,1.5t-.063,1.5a6.287,6.287,0,0,0,.956.063,3.83,3.83,0,0,1,1.049.142,1.859,1.859,0,0,1,.83.475,1.361,1.361,0,0,1,.329,1q0,.38-.538.443A7.147,7.147,0,0,1,8.055,5.6a9.036,9.036,0,0,0-1.2.016q-.555.048-.617.427-.064.444-.143,1.013a5.752,5.752,0,0,1-.253,1.076A2.606,2.606,0,0,1,5.349,9a1.111,1.111,0,0,1-.886.364,1.5,1.5,0,0,1-.728-.19.663.663,0,0,1-.348-.633A6.343,6.343,0,0,1,3.5,7.358,6.23,6.23,0,0,0,3.608,6.2V5.887A7.559,7.559,0,0,1,2.5,6.06,3.474,3.474,0,0,1,1.44,6a2.264,2.264,0,0,1-.886-.412A1.61,1.61,0,0,1,0,4.652q.1-.221.617-.4a9.55,9.55,0,0,1,1.171-.3q.648-.126,1.266-.206t.9-.142" transform="translate(34.89 6.515)" fill="#1a4184"/>
          <path id="Tracé_1541" data-name="Tracé 1541" d="M3.956,3.608a1.283,1.283,0,0,0,.16-.712A10.617,10.617,0,0,1,4.26,1.661,2.981,2.981,0,0,1,4.708.507,1.228,1.228,0,0,1,5.813,0a1.252,1.252,0,0,1,.928.443q-.032.759-.063,1.5t-.063,1.5a6.287,6.287,0,0,0,.956.063,3.83,3.83,0,0,1,1.049.142,1.859,1.859,0,0,1,.83.475,1.361,1.361,0,0,1,.329,1q0,.38-.538.443A7.147,7.147,0,0,1,8.055,5.6a9.036,9.036,0,0,0-1.2.016q-.555.048-.617.427-.064.444-.143,1.013a5.752,5.752,0,0,1-.253,1.076A2.606,2.606,0,0,1,5.349,9a1.111,1.111,0,0,1-.886.364,1.5,1.5,0,0,1-.728-.19.663.663,0,0,1-.348-.633A6.343,6.343,0,0,1,3.5,7.358,6.23,6.23,0,0,0,3.608,6.2V5.887A7.559,7.559,0,0,1,2.5,6.06,3.474,3.474,0,0,1,1.44,6a2.264,2.264,0,0,1-.886-.412A1.61,1.61,0,0,1,0,4.652q.1-.221.617-.4a9.55,9.55,0,0,1,1.171-.3q.648-.126,1.266-.206t.9-.142" transform="translate(-0.89 8.515)" fill="#1a4184"/>
        </g>
      </g>
    </g>
  </g>
</svg>
